<svg xmlns="http://www.w3.org/2000/svg" viewBox="0 0 283.5 485.4"><defs><clipPath id="a"><path d="M0 0h283.5v485.4H0z"/></clipPath></defs><g style="clip-path:url(#a)"><path d="m46.5 452.2 47.6 33.2 47.7-33.2 47.6 33.2 47.6-33.2 46.5 33.2V0H0v485.4Z" style="fill:#fff"/><path d="M35.1 364.5H256v4.2H35.1zM35.1 60.3h59.4v4.2H35.1zM189 60.3h59.4v4.2H189zM122.6 50.1c-1 1.9-2 4-3 6.4s-2 4.8-3 7.4-2 5-3.1 7.2a20.267 20.267 0 0 1-3.1 5 13.475 13.475 0 0 1-3.7 3.2 8.97 8.97 0 0 1-4 1.3 7.494 7.494 0 0 1-6.6-3 8.125 8.125 0 0 1-1.2-2.9 9.417 9.417 0 0 1-.1-2.9 9.013 9.013 0 0 1 .5-2.2c.3-.5.5-.8.9-.9.3 0 .6.3.8 1.1a3.149 3.149 0 0 0 1.2 1.9 5.069 5.069 0 0 0 1.8.9 7.388 7.388 0 0 0 2.1 0 9.493 9.493 0 0 0 2.1-.9 10.1 10.1 0 0 0 1.6-1.3 14.282 14.282 0 0 0 1.5-1.8 14.289 14.289 0 0 0 1.4-2c.4-.7.8-1.4 1.2-2 .7-1.3 1.5-2.8 2.3-4.4s1.6-3.2 2.4-4.9a54.245 54.245 0 0 1 2.6-4.8 27.85 27.85 0 0 1 2.8-4.2 52.79 52.79 0 0 1-5.6.1 45.532 45.532 0 0 1-5.3-.4c-1.7-.2-3.2-.5-4.7-.8a17.008 17.008 0 0 1-3.8-1.2 6.7 6.7 0 0 1-2.8-2.1 11.235 11.235 0 0 1-1.6-2.8 7.225 7.225 0 0 1-.5-2.8 6.873 6.873 0 0 1 .3-2.2c.2-.6.5-1 .9-1.1s.9.1 1.4.7a10.566 10.566 0 0 0 4.3 2.5 50 50 0 0 0 7 1.9 74.229 74.229 0 0 0 8.4 1 46.779 46.779 0 0 0 8.4-.1 21.4 21.4 0 0 1 4.1-2.5 15.307 15.307 0 0 1 4.5-1.3 5.7 5.7 0 0 1 3.4.5 2.675 2.675 0 0 1 1.4 1.8 3.256 3.256 0 0 1-1 2.5 10.256 10.256 0 0 1-3.5 2.6 25.2 25.2 0 0 1-4.4 1.7 40.5 40.5 0 0 1-5 1.2.1.1 0 0 0-.1.1 24.98 24.98 0 0 0-3.2 4.5Zm58.6 10.4a3.192 3.192 0 0 1-.6 1.6 35.042 35.042 0 0 1-3.9 4.6 28.131 28.131 0 0 1-4.4 3.5 18.213 18.213 0 0 1-4.7 2.2 16.094 16.094 0 0 1-4.8.8 9.48 9.48 0 0 1-4.6-1.1 6.266 6.266 0 0 1-2.8-3 9.425 9.425 0 0 1-.7-3 36.059 36.059 0 0 1-3.5 3.3 22.657 22.657 0 0 1-4.4 2.7 10.64 10.64 0 0 1-4.5 1.1 5.2 5.2 0 0 1-2.9-.7 4.552 4.552 0 0 1-1.6-1.8 5.343 5.343 0 0 1-.3-2.6 8.723 8.723 0 0 1 1.1-3.2 23.551 23.551 0 0 1 2-3.2c.8-1.1 1.5-2.2 2.1-3.1a6.128 6.128 0 0 0 1-2.3c.1-.6-.3-.9-1.1-.9a4.264 4.264 0 0 0-2.1.8 12.716 12.716 0 0 0-2.7 2.3 25.492 25.492 0 0 0-3.2 4.1c-1.2 1.7-2.4 3.8-3.8 6.2l-.2.6c-.5 1-.8 1.7-1.1 2.3-.3.5-.5.9-.9 1.1a2.144 2.144 0 0 1-1.2.4c-.5 0-1.2.1-2.1.1a8.622 8.622 0 0 1-1.7-.1q-.75-.15-.9-.6a1.67 1.67 0 0 1 0-1.4 19.047 19.047 0 0 1 1.1-2.7c.9-1.7 2.1-3.8 3.6-6.5s3.2-5.5 5.1-8.4c1.9-3 3.8-5.8 5.8-8.6s3.8-5.2 5.5-7.2a7.966 7.966 0 0 1 2.9-2.2 3.555 3.555 0 0 1 2.4-.3 2.76 2.76 0 0 1 1.6 1.2 4.13 4.13 0 0 1 .5 2.3 7.132 7.132 0 0 1-1.6 3.7 37.478 37.478 0 0 1-3.4 3.6c-1.3 1.2-2.6 2.5-4 3.7a16.964 16.964 0 0 0-3.4 4.2 16.688 16.688 0 0 1 3.7-2.4 7.988 7.988 0 0 1 3.6-.9 4.1 4.1 0 0 1 3.2 1 3.667 3.667 0 0 1 .9 2.7 13.981 13.981 0 0 1-1 3.9 30.093 30.093 0 0 1-2.5 4.6c-.4.6-.7 1.2-1.1 1.8a6.973 6.973 0 0 0-.6 1.7 2.4 2.4 0 0 0 0 1.2 1 1 0 0 0 1 .5 5.657 5.657 0 0 0 2.4-.6 12.754 12.754 0 0 0 2.7-1.6 17.2 17.2 0 0 0 4.7-5.1c.2-.3.4-.5.5-.7s.2-.5.3-.7a22.039 22.039 0 0 1 2.6-3.9 14.714 14.714 0 0 1 3.5-3.1 10.518 10.518 0 0 1 4-1.6 6.838 6.838 0 0 1 4.2.5 5.822 5.822 0 0 1 2.4 1.8 4.473 4.473 0 0 1 .9 2.5 7.437 7.437 0 0 1-.6 2.8 8.972 8.972 0 0 1-2.1 2.7 19.012 19.012 0 0 1-4.6 2.9 22.137 22.137 0 0 1-5.4 1.6 3.4 3.4 0 0 0 1.2 2 5.155 5.155 0 0 0 2 .9 8.005 8.005 0 0 0 3.4-.2 15.012 15.012 0 0 0 3.8-1.5 20.852 20.852 0 0 0 6.6-5.7 3.748 3.748 0 0 1 1.4-1.2 1.47 1.47 0 0 1 1.1-.1 1.383 1.383 0 0 1 .2.7ZM161.5 62a16.912 16.912 0 0 0 4-1.3 8.562 8.562 0 0 0 3.6-3c.7-.9.9-1.7.6-2.3s-.9-.8-1.8-.7a5.671 5.671 0 0 0-2.9 1.6 11.7 11.7 0 0 0-3 4.5ZM248.4 164.3h-15.2l-27-49.9v49.9H189V90.6h24.8L231 126V90.6h17.4Zm-85.5 91.4h-42.3a8.723 8.723 0 0 1-6.2-2.2 7.026 7.026 0 0 1-2.5-5.6v-66.1h17.5V240h24.8v-58.2h17.5v66.1a7.026 7.026 0 0 1-2.5 5.6 9.144 9.144 0 0 1-6.3 2.2Zm-68.4-140V98.5a7.518 7.518 0 0 0-2.5-5.7 9.143 9.143 0 0 0-6.2-2.3H43.7a8.963 8.963 0 0 0-6.2 2.3 7.476 7.476 0 0 0-2.4 5.7v58a7.263 7.263 0 0 0 2.4 5.6 8.723 8.723 0 0 0 6.2 2.2h42a8.723 8.723 0 0 0 6.2-2.2 7.026 7.026 0 0 0 2.5-5.6v-17H77.1v9.3H52.3v-35.6l-9.5-6.8h34.3v9.3Zm74.4-22.9a8.891 8.891 0 0 0-6.1-2.3h-42.1a8.891 8.891 0 0 0-6.1 2.3 6.966 6.966 0 0 0-2.5 5.5v58.2a7.026 7.026 0 0 0 2.5 5.6 8.809 8.809 0 0 0 6.1 2.2h42.2a8.809 8.809 0 0 0 6.1-2.2 7.026 7.026 0 0 0 2.5-5.6V98.3a7.736 7.736 0 0 0-2.6-5.5Zm-14.8 55.8h-24.6v-35.4l-9.7-6.9h34.3v42.3ZM99.8 263.5l-7.2-10.8a7.141 7.141 0 0 0 1.9-4.9v-58.2a7.109 7.109 0 0 0-2.5-5.5 8.891 8.891 0 0 0-6.1-2.3H43.7a8.891 8.891 0 0 0-6.1 2.3 6.966 6.966 0 0 0-2.5 5.5v58.2a7.026 7.026 0 0 0 2.5 5.6 8.809 8.809 0 0 0 6.1 2.2h30.6l5.3 8h20.2Zm-57-66h34.3v42.3H52.5v-35.4Zm42.4 124.2a8.79 8.79 0 0 0 6.2-2.3 7.227 7.227 0 0 0 2.5-5.7V281a7.109 7.109 0 0 0-2.5-5.5 9.143 9.143 0 0 0-6.2-2.3H35.1v73.7h17.4v-25.2H65L81.9 347h20.2ZM76.6 306H52.5v-10.1l-9.7-6.9h33.9v17Zm92.3-30.4a8.891 8.891 0 0 0-6.1-2.3h-42.1a8.891 8.891 0 0 0-6.1 2.3 6.966 6.966 0 0 0-2.5 5.5v58.2a7.026 7.026 0 0 0 2.5 5.6 8.809 8.809 0 0 0 6.1 2.2h42.2a8.809 8.809 0 0 0 6.1-2.2 7.026 7.026 0 0 0 2.5-5.6v-58.2a7.394 7.394 0 0 0-2.6-5.5Zm-14.8 55.7h-24.6v-35.4l-9.7-6.9h34.3v42.3Zm85-9.6a8.79 8.79 0 0 0 6.2-2.3 7.562 7.562 0 0 0 2.5-5.7V281a7.109 7.109 0 0 0-2.5-5.5 9.143 9.143 0 0 0-6.2-2.3H189v73.7h17.4v-25.2h12.5l16.9 25.3H256Zm-8.6-15.7h-24.1v-10.1l-9.7-6.9h33.8v17Zm17.9-124H189v73.7h59.4v-15.5H206v-13.3h27.7v-15.5h-27.6v-6.8l-9.4-6.7h51.8V182ZM39.6 410c8.6-4.9 14.8-27.3 25.5-30.2 5.9-1.6 8.1 5 5.6 4.4-10.8-2.4-20.7 27.2-33.1 28.6-1.3.2-2-1.2-.7-2.7 5.4-6 6.3-23.9-.2-25.8-3.2-1 4.7-5.2 8.2.4 4.2 7-.9 20.3-5.3 25.3Z"/><path d="M62.1 401.4c-.7 1.2-1.4 2.6-.5 2.6 1.4 0 3.7-1.7 4.8-3.6.8-1.3 1.8-.7 1.1.6-1.3 2.4-5.4 5.5-7.2 5.5s-3.1-1.1-1.9-3.6c1.1-2.5 1.8-4 2.5-5.5.7-1.4 1-1.6 2.3-1.8s2.3-.2 1.5 1.2a47.206 47.206 0 0 1-2.6 4.6Zm.8-8.2c-.8-1.9 3.4-4 4.3-2s-3.6 3.8-4.3 2Z"/><path d="M73.2 394.9c.7-1 2.2.5 1.5 1.8v.1c-.4.8-2.2 3.9-2.6 4.7-.6 1.2-1.4 2.6-.5 2.6 1.4 0 3.7-1.7 4.8-3.6.8-1.3 1.8-.7 1.1.6-1.3 2.4-4.9 5.5-7.2 5.5-1.9 0-2.2-1.8-.7-4.5a26.14 26.14 0 0 1 1.9-3 4.564 4.564 0 0 1-3.1.7 8.51 8.51 0 0 1-.9 1.4c-1.1 1.2-2.1.7-1.1-.6.3-.4.6-.9.9-1.4-1.8-1.9 1.2-6.3 3-5.5.9.4.2 1.6-.2 2.7a2.807 2.807 0 0 0 3.1-1.5Z"/><path d="M85.6 391c2-.3 3.8-.5 4.6-.7 1.9-.4-.7 2.8-2.3 2.8h-4c-1 1.3-2 2.9-2.8 4.1-1.7 2.6-2.7 6.1-2 6.5.9.6 3.2-.6 5-3.2.8-1.2 1.9-.7 1.1.6-1.9 3.1-4.8 5.5-7.4 5.5-2.7 0-3.7-3.8 1.3-11.1.4-.6 1-1.5 1.6-2.3H78c-.9 0 0-1.3 1-1.4a16.786 16.786 0 0 0 4.3-1.2c1.7-.7 4.1-1.5 2.4.3Z"/><path d="M86.8 403.8c1.4 0 2.3-1.8 3.5-3.8.5-1 .8-1.8 1.2-2.6.7-1.4 1-1.6 2.3-1.8s2.3-.2 1.5 1.2-2 3.4-2.6 4.6c-.7 1.2-1.4 2.6-.5 2.6 1.4 0 3.7-1.7 4.8-3.6.8-1.3 1.8-.7 1.1.6-1.3 2.4-5.4 5.5-7.2 5.5-1.4 0-2.4-.6-2.4-2a5.128 5.128 0 0 1-3.6 2c-1.8 0-2.3-1.4-1.7-3.6a18.814 18.814 0 0 1 2.7-5.5c.9-1.3 1.3-1.6 2.6-1.8 1.2-.2 2.1-.1 1.2 1.2-4 5.7-3.9 7-2.9 7Z"/><path d="M106.8 401.4c-.7 1.2-1.4 2.6-.5 2.6 1.4 0 3.7-1.7 4.8-3.6.8-1.3 1.8-.7 1.1.6-1.3 2.4-5.4 5.5-7.2 5.5-1.3 0-2.3-.5-2.4-1.7a4.725 4.725 0 0 1-3.5 1.7c-3 0-4.2-3.7-1.6-7.1 2.4-3.3 6.3-4.3 8.3-2.3a2.26 2.26 0 0 1 2.1-1.4c1.2-.2 2.3-.2 1.5 1.2-.7 1.4-1.9 3.4-2.6 4.5Zm-1.9-2.4a4.349 4.349 0 0 0-.7-.6c-1.3-.5-3.6.6-4.7 2.6-.8 1.3-.6 2.7.8 2.7 1.6 0 3.3-1.8 4.6-4.7Z"/><path d="M114.6 398.9c-1 2.1-1.1 4.1-.2 4.7.8.6 3.2-.6 5-3.2.8-1.2 1.9-.7 1.1.6-1.9 3.1-4.8 5.5-7.4 5.5-2.7 0-4.2-3.8.8-11.1 3.4-5.1 6.7-7.1 8.3-6 1.3.8.5 3-2.2 5.4-1.6 1.4-3.9 3-5.4 4.1Zm2.1-3.1c2.3-1.9 4.4-3.9 4.1-4.3-.5-.4-2.2 1.8-4.1 4.3ZM138.7 383.7a18.942 18.942 0 0 1 10.2-2.9c8.9.2 8.4 10.8-2.2 11.1a17.529 17.529 0 0 1-8.5-1.7 20.63 20.63 0 0 0-3.4 5.1c-3.2 6.7-2.3 13.1 2.2 13.3 4.2.3 6.7-4.7 3.7-7.6-2.1-2 5.8-2.2 6.7 2.4.7 4-3.3 8.1-10 8.1-7.6 0-12.4-8.2-7.7-17.8a25.051 25.051 0 0 1 4.9-6.8c-3.1-4.9 4.6-10.8 3.9-6.6a6.29 6.29 0 0 0 .2 3.4Zm2.7 3.6a9.784 9.784 0 0 0 6.7 1.8c5-.8 5.2-5.3.4-4.9-2.2.1-4.7 1.3-7.1 3.1Z"/><path d="M148.7 404.2c1.7-3.2 6.4-11.3 9.8-15.1 2-2.2 3.8-1.3 3.7.5-.2 2.6-4.3 4.5-6.1 7.5a5.8 5.8 0 0 1 3.6-1.6c3 0 2.3 2.8.2 5.9-.8 1.2-1.3 2.6-.3 2.6 1.4 0 3.7-1.7 4.8-3.6.8-1.3 1.8-.7 1.1.6-1.3 2.4-4.8 5.5-7.6 5.5-2.3 0-3-1.9-1.9-4.1 1-2 3.6-4.8 1.9-4.7-1.2.1-3.1 1.7-5.8 6.5l-.1.3c-.9 1.9-.8 1.9-2.6 1.9-1.2.1-1.8 0-.7-2.2Z"/><path d="M174.2 401.4c-.7 1.2-1.4 2.6-.5 2.6 1.4 0 3.7-1.7 4.8-3.6.8-1.3 1.8-.7 1.1.6-1.3 2.4-5.4 5.5-7.2 5.5-1.3 0-2.3-.5-2.4-1.7a4.725 4.725 0 0 1-3.5 1.7c-3 0-4.2-3.7-1.6-7.1 2.4-3.3 6.3-4.3 8.3-2.3a2.26 2.26 0 0 1 2.1-1.4c1.2-.2 2.3-.2 1.5 1.2-.7 1.4-1.9 3.4-2.6 4.5Zm-1.9-2.4a4.35 4.35 0 0 0-.7-.6c-1.3-.5-3.6.6-4.7 2.6-.8 1.3-.6 2.7.8 2.7 1.6 0 3.3-1.8 4.6-4.7Z"/><path d="M181.9 398.9c-1 2.1-1.1 4.1-.2 4.7.8.6 3.2-.6 5-3.2.8-1.2 1.9-.7 1.1.6-1.9 3.1-4.8 5.5-7.4 5.5-2.7 0-4.2-3.8.8-11.1 3.4-5.1 6.7-7.1 8.3-6 1.3.8.5 3-2.2 5.4a51.226 51.226 0 0 1-5.4 4.1Zm2.2-3.1c2.3-1.9 4.4-3.9 4.1-4.3-.5-.4-2.3 1.8-4.1 4.3Z"/><path d="M190.2 398.9c-1 2.1-1.1 4.1-.2 4.7.8.6 3.2-.6 5-3.2.8-1.2 1.9-.7 1.1.6-1.9 3.1-4.8 5.5-7.4 5.5-2.7 0-4.2-3.8.8-11.1 3.4-5.1 6.7-7.1 8.3-6 1.3.8.5 3-2.2 5.4-1.6 1.4-3.9 3-5.4 4.1Zm2.1-3.1c2.3-1.9 4.4-3.9 4.1-4.3-.5-.4-2.3 1.8-4.1 4.3Z"/><path d="M197.7 402.7a1.919 1.919 0 0 0 1.6 1.4c2 .3 5.1-1.4 6.8-3.7.9-1.2 2-.6 1.1.6-2.3 3.3-5.7 5.5-8.8 5.5-3.6 0-5-3-3.1-6.8 1.3-2.6 4.2-5.2 7-4 2.1.9 2.1 3.2.3 4.8a9.209 9.209 0 0 1-4.9 2.2Zm.2-1.7a5.868 5.868 0 0 0 3.8-2.1c1.4-1.9-1.7-2.5-3.5 1.5Z"/><path d="M214.1 404c1.4 0 3.7-1.7 4.8-3.6.8-1.3 1.8-.7 1.1.6-1.3 2.4-5.4 5.5-7.2 5.5s-3.3-1.1-2.1-3.6c.9-2 3.4-5.2 1.8-5.1-1.3.1-4.5 4.8-5.8 7.6-.4.8-.6 1.2-1 1.2h-.7c-.9 0-1.3-.3-1-1.1.3-.9.6-1.6.9-2.5 1.1-2.5 1.8-4 2.5-5.5s1.4-1.6 2.7-1.8c1-.1 1 .4.4 1.6a5.672 5.672 0 0 1 3.5-1.8c3 0 3.1 2.5.8 5.8-.7 1.1-1.7 2.7-.7 2.7Z"/><path d="M227.6 396.8c.5-.9.9-1 2-1.2 1.3-.2 2.3-.2 1.5 1.2s-1.9 3.5-2.7 4.6a22.48 22.48 0 0 0-1.6 3.1 13.812 13.812 0 0 0 5.7-4.1c.8-1 2-.8 1.1.6-1.9 3-4.9 4.5-7.7 5.5-1.1 2-2.4 3.7-4.6 4.5-5.5 1.9-7.8-3.2-3.9-5.3.4-.2.9-.4 1.4-.6-.8-1.4-.7-3.6.9-5.8 2.2-3 5.8-4.1 7.9-2.5Zm-4.8 9.5a7.811 7.811 0 0 0-3.4.1c-2.5.8-2.4 2.7-.7 2.7 1.1 0 2.5-.7 4.1-2.8Zm3.6-7.7-.3-.1c-1.3-.5-3.6.6-4.7 2.6-.8 1.3-.6 2.7.8 2.7 1.7-.1 2.9-2 4.2-5.2Z"/><path d="M235.1 402.7a1.919 1.919 0 0 0 1.6 1.4c2 .3 5.1-1.4 6.8-3.7.9-1.2 2-.6 1.1.6-2.3 3.3-5.7 5.5-8.8 5.5-3.6 0-5-3-3.1-6.8 1.3-2.6 4.2-5.2 7-4 2.1.9 2.1 3.2.3 4.8a9.209 9.209 0 0 1-4.9 2.2Zm.2-1.7a5.868 5.868 0 0 0 3.8-2.1c1.4-1.9-1.7-2.5-3.5 1.5Z"/><path d="M251.6 396.4c0 1.2-1.3.2-1.2 2a11 11 0 0 1-.6 5.2 7.736 7.736 0 0 0 4.5-3.1c.8-1.3 1.8-.7 1.1.6a9.745 9.745 0 0 1-7.1 4.6 4.86 4.86 0 0 1-3 .9c-2.8 0-4.1-2.9-1.8-6.1 3.8-5.1 3.3-4.8 6.1-4.8 1.8-.1 2 .1 2 .7Zm-4.2 1.3s-1.3 1.5-2.3 2.9c-2.2 3 .1 4.2 1.2 3.1 1.5-1.5.7-4.7 1.1-6Z"/></g></svg>